# xmcd
# 
# Track frame offsets:
#     150
#     33423
#     62385
#     100875
#     145853
#     187368
#     229990
# 
# Disc length: 3431
# 
# Revision: 3
# Processed by: cddbd v1.5.2PL0 Copyright (c) Steve Scherf et al.
# Submitted via: BonkEnc v1.0.8
# 
DISCID=600d6507
DTITLE=Jerry Granelli - One Day At A Time
DYEAR=1998
DGENRE=Contemporary Jazz
TTITLE0=Point Of Departure
TTITLE1=Life Line
TTITLE2=One Day At A Time
TTITLE3=Helium Tears
TTITLE4=Until Now
TTITLE5=City Life
TTITLE6=23rd and Cherry
EXTD=
EXTT0=
EXTT1=
EXTT2=
EXTT3=
EXTT4=
EXTT5=
EXTT6=
PLAYORDER=
